<?xml version="1.0" encoding="UTF-8"?>
<svg version="1.1" xmlns="http://www.w3.org/2000/svg" width="40" height="40" viewBox="0 0 434 411">
<path d="M0 0 C143.22 0 286.44 0 434 0 C434 135.63 434 271.26 434 411 C290.78 411 147.56 411 0 411 C0 275.37 0 139.74 0 0 Z " fill="#010100" transform="translate(0,0)"/>
<path d="M0 0 C1.14807365 -0.00694553 2.2961473 -0.01389106 3.47901106 -0.02104706 C6.66629241 -0.03619405 9.85297632 -0.03335817 13.04025817 -0.02289402 C16.47728406 -0.01591164 19.91421379 -0.03189253 23.35121155 -0.04489136 C30.08447763 -0.06655243 36.81757485 -0.0663992 43.55086434 -0.05826581 C49.02224303 -0.05197058 54.4935724 -0.05309845 59.96495056 -0.05953789 C60.74313022 -0.06043954 61.52130988 -0.0613412 62.32307073 -0.06227018 C63.90383869 -0.06412134 65.48460663 -0.0659839 67.06537455 -0.06785773 C81.89453499 -0.08444337 96.72360033 -0.07571034 111.55275506 -0.05887216 C125.12635406 -0.0441726 138.69973176 -0.05880577 152.27330226 -0.08764232 C166.20426527 -0.11701821 180.13512608 -0.12801402 194.06611872 -0.11846012 C195.64113011 -0.11743754 197.21614152 -0.11644294 198.79115295 -0.11547661 C199.56612514 -0.11500022 200.34109733 -0.11452383 201.13955352 -0.114033 C206.60552108 -0.11186657 212.07139211 -0.12168498 217.53733826 -0.13624763 C224.1969268 -0.15374267 230.85623307 -0.15369457 237.51581037 -0.13089598 C240.91490391 -0.11972797 244.31349965 -0.11664803 247.7125721 -0.13519669 C251.39423045 -0.15101997 255.07451148 -0.13627536 258.75610352 -0.11352539 C260.37456846 -0.13127898 260.37456846 -0.13127898 262.02572966 -0.14939123 C269.15991316 -0.05935948 269.15991316 -0.05935948 272.54142761 2.64355564 C274.11714662 6.0282465 274.38110829 8.34776853 274.38598633 12.08058167 C274.39534627 13.04950002 274.39534627 13.04950002 274.40489531 14.03799248 C274.42080444 16.19465403 274.40823068 18.350182 274.39562988 20.5068512 C274.40105198 22.05611326 274.40817514 23.60537016 274.41687012 25.15461731 C274.43509616 29.357131 274.42803905 33.55925164 274.41535378 37.76177216 C274.40522233 42.16102147 274.41461985 46.56023727 274.42089844 50.95948792 C274.42817443 58.34708189 274.41858844 65.73451589 274.39953613 73.12208557 C274.37776743 81.66152454 274.38481884 90.2005815 274.40684175 98.74001122 C274.42499716 106.07349605 274.42755341 113.40686593 274.41708708 120.74036598 C274.4108529 125.11960232 274.41001438 129.49865913 274.42323303 133.87788391 C274.43479302 137.9951591 274.42676346 142.11194207 274.40365601 146.22916412 C274.39836965 147.7396386 274.3998815 149.25015454 274.40870667 150.76061249 C274.41964976 152.82388158 274.40591695 154.88557676 274.38598633 156.94874573 C274.38372417 158.67981064 274.38372417 158.67981064 274.38141632 160.44584656 C273.76677544 164.19307193 272.54401039 165.85318672 269.87805176 168.5146637 C266.99794456 169.47469943 265.18858625 169.64335365 262.19686317 169.65167809 C261.22907295 169.65675263 260.26128272 169.66182717 259.26416552 169.66705549 C258.19852197 169.66755324 257.13287841 169.668051 256.03494263 169.66856384 C254.33967345 169.67513722 254.33967345 169.67513722 252.61015642 169.6818434 C248.8031316 169.69525437 244.99612995 169.70141538 241.18908691 169.70753479 C238.4677248 169.71490634 235.74636756 169.72369734 233.02500916 169.73231506 C224.84523268 169.75683394 216.66545013 169.77146374 208.48564821 169.78437513 C206.17601915 169.78808689 203.86639068 169.79206011 201.55676222 169.7961278 C187.21843851 169.8213598 172.88011385 169.84341575 158.54177284 169.85585594 C155.22092307 169.85878569 151.90007333 169.86174735 148.57922363 169.86476135 C147.7538314 169.8655074 146.92843916 169.86625345 146.07803504 169.86702211 C132.69906218 169.87968315 119.32022199 169.91291696 105.9413112 169.95456319 C92.21041049 169.99695544 78.47957779 170.02054767 64.74861181 170.02577651 C57.03707622 170.02919328 49.32574814 170.04097994 41.61427689 170.07387924 C35.04878185 170.10184354 28.48353686 170.11289506 21.91798688 170.10168378 C18.56723801 170.09648787 15.21743835 170.10215341 11.8666935 170.12414932 C8.23572959 170.14669254 4.60609688 170.13861339 0.97512817 170.12266541 C-0.08605394 170.13654749 -1.14723605 170.15042958 -2.24057519 170.16473234 C-6.86733017 170.11446153 -9.3692393 170.02114532 -13.2762537 167.39219952 C-15.50092184 163.92382372 -15.74808043 161.97101129 -15.75013733 157.86608887 C-15.75723172 157.21127063 -15.7643261 156.55645239 -15.77163547 155.88179117 C-15.78919119 153.69492874 -15.7711263 151.5098496 -15.75305176 149.32301331 C-15.75819153 147.75242301 -15.76547326 146.18183849 -15.7747345 144.61126709 C-15.79324808 140.35088259 -15.78031113 136.09112393 -15.7606442 131.83076549 C-15.74425878 127.37232786 -15.7530703 122.91392991 -15.75816345 118.45547485 C-15.76268407 110.96948751 -15.74681547 103.48375008 -15.71887207 95.99781799 C-15.68680854 87.34133441 -15.68684048 78.68530126 -15.70408684 70.02878565 C-15.71994555 61.70199999 -15.71322338 53.37537957 -15.69614983 45.04860115 C-15.68927479 41.50439115 -15.69031635 37.96031343 -15.69769478 34.41610527 C-15.70535107 30.24382274 -15.69325343 26.07205345 -15.66584587 21.89985847 C-15.65895443 20.3680079 -15.65887223 18.83610946 -15.6660614 17.30426025 C-15.6747401 15.21435083 -15.65883072 13.12603123 -15.63661194 11.03625488 C-15.63240156 9.28168425 -15.63240156 9.28168425 -15.62810612 7.49166775 C-15.12194824 4.5146637 -15.12194824 4.5146637 -13.78490353 2.13923073 C-9.43312443 -0.51562303 -4.99782412 -0.03817127 0 0 Z " fill="#F98F4D" transform="translate(88.1219482421875,21.485336303710938)"/>
<path d="M0 0 C1.00897427 -0.00445784 2.01794855 -0.00891569 3.0574978 -0.01350862 C4.72497702 -0.01323207 4.72497702 -0.01323207 6.42614269 -0.01294994 C7.6046192 -0.01662663 8.78309572 -0.02030332 9.99728364 -0.02409142 C13.27398302 -0.03321986 16.55065297 -0.0378283 19.8273629 -0.04048073 C23.35916318 -0.04438353 26.89094896 -0.0539618 30.42273998 -0.0626936 C38.95403092 -0.08245725 47.48532305 -0.09252345 56.01663116 -0.10142139 C60.03302051 -0.10580388 64.04940854 -0.11117074 68.06579685 -0.11641026 C81.41468851 -0.13342137 94.76357934 -0.14791644 108.11248016 -0.155159 C111.57666875 -0.15706892 115.04085733 -0.15898925 118.50504589 -0.16094494 C119.36606319 -0.16142868 120.22708049 -0.16191242 121.11418923 -0.16241082 C135.06798348 -0.17071449 149.0216921 -0.1960576 162.97544894 -0.22852562 C177.29735179 -0.26157898 191.61921108 -0.27960614 205.94115227 -0.28280324 C213.98411888 -0.28496979 222.02696056 -0.29373966 230.06989002 -0.31926441 C236.91823405 -0.3409478 243.76642281 -0.34903348 250.61479727 -0.33929763 C254.10926765 -0.33474619 257.6034175 -0.33668763 261.09784412 -0.35605907 C264.88593537 -0.37366296 268.67320819 -0.3667275 272.46129894 -0.35352612 C273.56625959 -0.36449536 274.67122024 -0.37546461 275.80966455 -0.38676625 C281.91083615 -0.33527764 285.48550417 0.06257754 290.13419628 4.13422108 C291.85001659 5.94257069 291.85001659 5.94257069 293.21232128 7.78656483 C293.72802685 8.47371571 294.24373241 9.16086658 294.77506542 9.86884022 C295.30607861 10.5957909 295.83709179 11.32274158 296.38419628 12.07172108 C297.53368702 13.61096944 298.68342884 15.15003034 299.83341503 16.68890858 C300.67525341 17.8253783 300.67525341 17.8253783 301.53409863 18.98480701 C303.71796167 21.91839418 305.95513724 24.80695675 308.19669628 27.69672108 C308.97786816 28.71894764 309.75904003 29.7411742 310.56388378 30.79437733 C312.49969229 33.32481068 314.47296706 35.82306398 316.45450878 38.31781483 C317.57731627 39.75629569 318.69971754 41.19509372 319.82169628 42.63422108 C320.36382763 43.30525867 320.90595898 43.97629627 321.46451855 44.66766834 C325.15889502 49.45363374 325.15889502 49.45363374 325.02872753 53.04047108 C324.13419628 55.13422108 324.13419628 55.13422108 323.13419628 56.13422108 C321.1865624 56.23285673 319.23528997 56.25977785 317.28516006 56.26006222 C316.00599624 56.26266997 314.72683241 56.26527771 313.40890604 56.26796448 C311.97082414 56.26580195 310.53274238 56.26354527 309.09466076 56.26120472 C307.58142097 56.26235555 306.06818146 56.26394282 304.55494255 56.26593196 C300.37667803 56.27013053 296.19843616 56.26803223 292.02017152 56.26494575 C287.52181138 56.26269398 283.02345529 56.26617015 278.52509594 56.26892567 C269.70462971 56.27338487 260.88417196 56.2724062 252.06370539 56.26951303 C244.89793607 56.26725944 237.73216914 56.26694628 230.56639957 56.26803684 C229.54855493 56.26819008 228.5307103 56.26834331 227.48202188 56.26850118 C225.41461587 56.26882089 223.34720987 56.26914511 221.27980386 56.26947378 C201.86876107 56.27232904 182.457723 56.26904089 163.04668098 56.26367341 C146.37427161 56.259206 129.7018692 56.25998069 113.02945995 56.26459217 C93.69190463 56.26993827 74.35435344 56.27205364 55.01679748 56.26897991 C52.95646791 56.26866134 50.89613833 56.26834697 48.83580875 56.26803684 C47.8219567 56.26788257 46.80810464 56.26772829 45.7635298 56.26756934 C38.60301713 56.26670424 31.44250708 56.26816693 24.28199482 56.2705164 C15.56045069 56.27331501 6.83891556 56.27257485 -1.88262754 56.26723565 C-6.33644834 56.26459937 -10.79025411 56.26359233 -15.24407482 56.2668848 C-19.31569733 56.26984931 -23.38729075 56.26825235 -27.45891059 56.26290725 C-28.9373719 56.26178372 -30.41583562 56.26237285 -31.89429539 56.26478304 C-33.89317073 56.2677934 -35.89205289 56.2641289 -37.89092636 56.26006222 C-39.00448374 56.25989987 -40.11804111 56.25973751 -41.26534265 56.25957024 C-43.86580372 56.13422108 -43.86580372 56.13422108 -45.86580372 55.13422108 C-46.29156655 51.70933473 -45.98393568 50.319521 -44.10017872 47.36468983 C-42.87041309 45.8584203 -42.87041309 45.8584203 -41.61580372 44.32172108 C-40.69262778 43.17041929 -39.77081261 42.01802537 -38.85017872 40.86468983 C-38.11831348 39.95662586 -38.11831348 39.95662586 -37.37166309 39.03021717 C-34.79583969 35.78705172 -32.33699089 32.45734903 -29.86580372 29.13422108 C-8.08690916 0.01655826 -8.08690916 0.01655826 0 0 Z " fill="#FB904E" transform="translate(77.8658037185669,215.86577892303467)"/>
<path d="M0 0 C1.08190273 -0.00128164 1.08190273 -0.00128164 2.18566209 -0.00258917 C4.60860712 -0.0042396 7.03148331 0.00127028 9.454422 0.00672913 C11.18883258 0.00701112 12.92324329 0.00685303 14.65765381 0.00628662 C19.37221225 0.00599911 24.08674536 0.01188832 28.8012979 0.01886058 C33.72606132 0.02510187 38.65082528 0.02569853 43.57559204 0.02688599 C52.90406353 0.02999701 62.23252334 0.03820732 71.56098968 0.04823548 C82.17996082 0.05940371 92.79893252 0.06490886 103.41790807 0.06993091 C125.26447719 0.08039011 147.11103577 0.09798514 168.95759583 0.12025452 C168.95759583 3.75025452 168.95759583 7.38025452 168.95759583 11.12025452 C168.17276825 11.13056198 167.38794067 11.14086945 166.57933044 11.15148926 C159.19237254 11.24936229 151.80550036 11.35186205 144.41868019 11.45959377 C140.62080941 11.51481896 136.82293092 11.5682383 133.02497864 11.61756897 C129.36152216 11.66521852 125.69816037 11.71756152 122.03481674 11.77319527 C120.63536809 11.79361615 119.23589348 11.81232969 117.83639908 11.82932854 C115.88015568 11.85337812 113.92399634 11.88399574 111.96784973 11.91493225 C110.29572922 11.93824867 110.29572922 11.93824867 108.58982849 11.96203613 C105.97868754 11.94606596 105.97868754 11.94606596 103.95759583 13.12025452 C103.29951164 15.24242571 103.29951164 15.24242571 102.88728333 17.81947327 C102.71325989 18.78175842 102.53923645 19.74404358 102.35993958 20.73548889 C102.18591614 21.74933655 102.0118927 22.7631842 101.83259583 23.80775452 C101.65083801 24.80226624 101.4690802 25.79677795 101.28181458 26.82142639 C100.01025463 33.92405436 100.01025463 33.92405436 99.95759583 41.12025452 C101.82690326 42.98956195 104.98632662 42.28446842 107.48103333 42.30970764 C108.162323 42.31800095 108.84361267 42.32629425 109.54554749 42.33483887 C111.02916609 42.35227371 112.51281276 42.36743105 113.99647522 42.38061523 C116.34084916 42.40157832 118.68508185 42.42860537 121.02937317 42.45729065 C126.00539365 42.51708357 130.981479 42.56920209 135.95759583 42.62025452 C141.72143507 42.67938857 147.48520454 42.7416077 153.24891663 42.81213379 C155.56503585 42.83880233 157.88116173 42.85956008 160.19734192 42.88014221 C161.60961749 42.89673866 163.02188987 42.91360992 164.43415833 42.93080139 C166.29161682 42.94959351 166.29161682 42.94959351 168.18659973 42.96876526 C170.95759583 43.12025452 170.95759583 43.12025452 171.95759583 44.12025452 C171.95759583 47.75025452 171.95759583 51.38025452 171.95759583 55.12025452 C220.79759583 55.12025452 269.63759583 55.12025452 319.95759583 55.12025452 C319.29759583 51.82025452 318.63759583 48.52025452 317.95759583 45.12025452 C320.52009583 47.30775452 320.52009583 47.30775452 322.95759583 50.12025452 C322.76711963 54.31073071 322.76711963 54.31073071 320.95759583 56.12025452 C319.00996194 56.21889017 317.05868952 56.24581129 315.10855961 56.24609566 C313.82939578 56.2487034 312.55023195 56.25131115 311.23230559 56.25399792 C309.79422369 56.25183539 308.35614192 56.24957871 306.9180603 56.24723816 C305.40482052 56.24838899 303.89158101 56.24997626 302.37834209 56.2519654 C298.20007757 56.25616397 294.0218357 56.25406567 289.84357107 56.25097919 C285.34521093 56.24872742 280.84685483 56.25220359 276.34849548 56.25495911 C267.52802925 56.25941831 258.70757151 56.25843964 249.88710494 56.25554647 C242.72133562 56.25329288 235.55556869 56.25297972 228.38979912 56.25407028 C227.37195448 56.25422352 226.35410984 56.25437675 225.30542142 56.25453462 C223.23801542 56.25485433 221.17060941 56.25517855 219.10320341 56.25550722 C199.69216062 56.25836248 180.28112254 56.25507433 160.87008052 56.24970685 C144.19767115 56.24523944 127.52526874 56.24601413 110.8528595 56.25062561 C91.51530417 56.2559717 72.17775299 56.25808708 52.84019703 56.25501335 C50.77986745 56.25469478 48.71953787 56.25438041 46.6592083 56.25407028 C45.64535624 56.25391601 44.63150419 56.25376173 43.58692934 56.25360278 C36.42641667 56.25273768 29.26590662 56.25420037 22.10539436 56.25654984 C13.38385023 56.25934845 4.6623151 56.25860829 -4.059228 56.25326909 C-8.5130488 56.25063281 -12.96685457 56.24962577 -17.42067528 56.25291824 C-21.49229778 56.25588275 -25.56389121 56.25428579 -29.63551105 56.24894069 C-31.11397235 56.24781716 -32.59243608 56.24840629 -34.07089584 56.25081648 C-36.06977119 56.25382684 -38.06865334 56.25016234 -40.06752682 56.24609566 C-41.18108419 56.24593331 -42.29464157 56.24577095 -43.44194311 56.24560368 C-46.04240417 56.12025452 -46.04240417 56.12025452 -48.04240417 55.12025452 C-48.46816701 51.69536817 -48.16053614 50.30555443 -46.27677917 47.35072327 C-45.04701355 45.84445374 -45.04701355 45.84445374 -43.79240417 44.30775452 C-42.86922823 43.15645273 -41.94741306 42.00405881 -41.02677917 40.85072327 C-40.29491394 39.9426593 -40.29491394 39.9426593 -39.54826355 39.01625061 C-36.97244015 35.77308516 -34.51359135 32.44338247 -32.04240417 29.12025452 C-10.25611121 -0.00729972 -10.25611121 -0.00729972 0 0 Z " fill="#F88F4D" transform="translate(80.04240417480469,215.87974548339844)"/>
<path d="M0 0 C1.14807365 -0.00694553 2.2961473 -0.01389106 3.47901106 -0.02104706 C6.66629241 -0.03619405 9.85297632 -0.03335817 13.04025817 -0.02289402 C16.47728406 -0.01591164 19.91421379 -0.03189253 23.35121155 -0.04489136 C30.08447763 -0.06655243 36.81757485 -0.0663992 43.55086434 -0.05826581 C49.02224303 -0.05197058 54.4935724 -0.05309845 59.96495056 -0.05953789 C60.74313022 -0.06043954 61.52130988 -0.0613412 62.32307073 -0.06227018 C63.90383869 -0.06412134 65.48460663 -0.0659839 67.06537455 -0.06785773 C81.89453499 -0.08444337 96.72360033 -0.07571034 111.55275506 -0.05887216 C125.12635406 -0.0441726 138.69973176 -0.05880577 152.27330226 -0.08764232 C166.20426527 -0.11701821 180.13512608 -0.12801402 194.06611872 -0.11846012 C195.64113011 -0.11743754 197.21614152 -0.11644294 198.79115295 -0.11547661 C199.56612514 -0.11500022 200.34109733 -0.11452383 201.13955352 -0.114033 C206.60552108 -0.11186657 212.07139211 -0.12168498 217.53733826 -0.13624763 C224.1969268 -0.15374267 230.85623307 -0.15369457 237.51581037 -0.13089598 C240.91490391 -0.11972797 244.31349965 -0.11664803 247.7125721 -0.13519669 C251.39423045 -0.15101997 255.07451148 -0.13627536 258.75610352 -0.11352539 C260.37456846 -0.13127898 260.37456846 -0.13127898 262.02572966 -0.14939123 C269.15991316 -0.05935948 269.15991316 -0.05935948 272.54142761 2.64355564 C274.11714662 6.0282465 274.38110829 8.34776853 274.38598633 12.08058167 C274.39534627 13.04950002 274.39534627 13.04950002 274.40489531 14.03799248 C274.42080444 16.19465403 274.40823068 18.350182 274.39562988 20.5068512 C274.40105198 22.05611326 274.40817514 23.60537016 274.41687012 25.15461731 C274.43509616 29.357131 274.42803905 33.55925164 274.41535378 37.76177216 C274.40522233 42.16102147 274.41461985 46.56023727 274.42089844 50.95948792 C274.42817443 58.34708189 274.41858844 65.73451589 274.39953613 73.12208557 C274.37776743 81.66152454 274.38481884 90.2005815 274.40684175 98.74001122 C274.42499716 106.07349605 274.42755341 113.40686593 274.41708708 120.74036598 C274.4108529 125.11960232 274.41001438 129.49865913 274.42323303 133.87788391 C274.43479302 137.9951591 274.42676346 142.11194207 274.40365601 146.22916412 C274.39836965 147.7396386 274.3998815 149.25015454 274.40870667 150.76061249 C274.41964976 152.82388158 274.40591695 154.88557676 274.38598633 156.94874573 C274.38372417 158.67981064 274.38372417 158.67981064 274.38141632 160.44584656 C273.76677544 164.19307193 272.54401039 165.85318672 269.87805176 168.5146637 C266.99794456 169.47469943 265.18858625 169.64335365 262.19686317 169.65167809 C261.22907295 169.65675263 260.26128272 169.66182717 259.26416552 169.66705549 C258.19852197 169.66755324 257.13287841 169.668051 256.03494263 169.66856384 C254.33967345 169.67513722 254.33967345 169.67513722 252.61015642 169.6818434 C248.8031316 169.69525437 244.99612995 169.70141538 241.18908691 169.70753479 C238.4677248 169.71490634 235.74636756 169.72369734 233.02500916 169.73231506 C224.84523268 169.75683394 216.66545013 169.77146374 208.48564821 169.78437513 C206.17601915 169.78808689 203.86639068 169.79206011 201.55676222 169.7961278 C187.21843851 169.8213598 172.88011385 169.84341575 158.54177284 169.85585594 C155.22092307 169.85878569 151.90007333 169.86174735 148.57922363 169.86476135 C147.7538314 169.8655074 146.92843916 169.86625345 146.07803504 169.86702211 C132.69906218 169.87968315 119.32022199 169.91291696 105.9413112 169.95456319 C92.21041049 169.99695544 78.47957779 170.02054767 64.74861181 170.02577651 C57.03707622 170.02919328 49.32574814 170.04097994 41.61427689 170.07387924 C35.04878185 170.10184354 28.48353686 170.11289506 21.91798688 170.10168378 C18.56723801 170.09648787 15.21743835 170.10215341 11.8666935 170.12414932 C8.23572959 170.14669254 4.60609688 170.13861339 0.97512817 170.12266541 C-0.08605394 170.13654749 -1.14723605 170.15042958 -2.24057519 170.16473234 C-6.86733017 170.11446153 -9.3692393 170.02114532 -13.2762537 167.39219952 C-15.50092184 163.92382372 -15.74808043 161.97101129 -15.75013733 157.86608887 C-15.75723172 157.21127063 -15.7643261 156.55645239 -15.77163547 155.88179117 C-15.78919119 153.69492874 -15.7711263 151.5098496 -15.75305176 149.32301331 C-15.75819153 147.75242301 -15.76547326 146.18183849 -15.7747345 144.61126709 C-15.79324808 140.35088259 -15.78031113 136.09112393 -15.7606442 131.83076549 C-15.74425878 127.37232786 -15.7530703 122.91392991 -15.75816345 118.45547485 C-15.76268407 110.96948751 -15.74681547 103.48375008 -15.71887207 95.99781799 C-15.68680854 87.34133441 -15.68684048 78.68530126 -15.70408684 70.02878565 C-15.71994555 61.70199999 -15.71322338 53.37537957 -15.69614983 45.04860115 C-15.68927479 41.50439115 -15.69031635 37.96031343 -15.69769478 34.41610527 C-15.70535107 30.24382274 -15.69325343 26.07205345 -15.66584587 21.89985847 C-15.65895443 20.3680079 -15.65887223 18.83610946 -15.6660614 17.30426025 C-15.6747401 15.21435083 -15.65883072 13.12603123 -15.63661194 11.03625488 C-15.63240156 9.28168425 -15.63240156 9.28168425 -15.62810612 7.49166775 C-15.12194824 4.5146637 -15.12194824 4.5146637 -13.78490353 2.13923073 C-9.43312443 -0.51562303 -4.99782412 -0.03817127 0 0 Z M-7.12194824 11.5146637 C-7.57784172 14.16179206 -7.57784172 14.16179206 -7.5096283 17.20814514 C-7.51953293 18.39432938 -7.52943756 19.58051361 -7.53964233 20.80264282 C-7.53514069 22.10559799 -7.53063904 23.40855316 -7.52600098 24.75099182 C-7.53170258 26.13571729 -7.53866603 27.52043805 -7.54679871 28.90515137 C-7.56476748 32.66751942 -7.56355498 36.42965473 -7.55785632 40.19205284 C-7.55477018 43.33090734 -7.56085041 46.46971676 -7.56689507 49.60856485 C-7.58095054 57.01171002 -7.57937021 64.41473982 -7.56799316 71.81788635 C-7.55650712 79.46096251 -7.57059323 87.10368798 -7.59738964 94.74671793 C-7.61952306 101.30475799 -7.62618949 107.86268777 -7.62031323 114.42076254 C-7.6169372 118.33944183 -7.61940131 122.25789623 -7.63656425 126.17654419 C-7.65199433 129.86041583 -7.64812249 133.5437665 -7.62925911 137.22761726 C-7.6237966 139.2273145 -7.63811664 141.22703492 -7.6529541 143.22668457 C-7.64311996 144.4128688 -7.63328583 145.59905304 -7.62315369 146.82118225 C-7.6229444 147.8543029 -7.62273512 148.88742355 -7.62251949 149.95185089 C-7.36289376 152.60800491 -7.36289376 152.60800491 -5.3782382 154.1510697 C-2.82356927 155.69498971 -1.47814632 155.89116521 1.47926235 155.89498043 C2.40375948 155.90342037 3.32825662 155.91186031 4.28076881 155.92055601 C5.2929172 155.91454596 6.30506558 155.90853592 7.34788513 155.90234375 C8.42583283 155.90772929 9.50378052 155.91311483 10.61439329 155.91866356 C14.23877138 155.93301011 17.86278768 155.92582276 21.48718262 155.91871643 C24.08061518 155.92441647 26.67404524 155.93137931 29.26747131 155.93951416 C35.58796227 155.95672228 41.90835391 155.95753802 48.22886222 155.95230126 C53.36555772 155.94826203 58.50222383 155.94970016 63.63891792 155.95504951 C64.73498261 155.95617215 64.73498261 155.95617215 65.85319002 155.95731746 C67.33756324 155.95884892 68.82193645 155.96038726 70.30630965 155.96193243 C84.2308199 155.97566477 98.15527399 155.97021465 112.07978297 155.95874722 C124.82173035 155.94881417 137.56353254 155.96175538 150.30545752 155.98568141 C163.38551697 156.01005752 176.46550875 156.01968394 189.54559046 156.01302868 C196.89041622 156.00953312 204.23513028 156.01179062 211.57993889 156.02927971 C218.48529123 156.04551825 225.39036133 156.04084322 232.2957058 156.02197456 C234.83338618 156.01827621 237.37108697 156.02143314 239.90874863 156.03186035 C243.3665682 156.04498616 246.82345594 156.03359641 250.28123474 156.01586914 C251.29115241 156.02547415 252.30107007 156.03507915 253.3415913 156.04497522 C257.56958848 156.00021783 260.22926646 155.86264226 264.00193214 153.83915806 C266.33365 150.95018181 266.50013718 149.51022414 266.49278259 145.82154846 C266.50254623 144.66067719 266.51230988 143.49980591 266.52236938 142.30375671 C266.5075351 141.03402008 266.49270081 139.76428345 266.47741699 138.45606995 C266.47928126 137.10237681 266.48331835 135.74868519 266.48936462 134.39500427 C266.49934305 130.72124169 266.4781637 127.04825012 266.45088458 123.37459946 C266.42705715 119.53010798 266.42999954 115.68563187 266.42958069 111.84107971 C266.42495204 105.38481085 266.40130702 98.9288368 266.3651123 92.47267151 C266.32337841 85.00860656 266.30579747 77.54480714 266.30249256 70.08063221 C266.2988923 62.13422394 266.28001568 54.18791121 266.25537229 46.24154282 C266.24914456 43.95181489 266.24550766 41.66209424 266.24233818 39.37236023 C266.23643486 35.77392394 266.22011429 32.17567715 266.19573402 28.5773201 C266.18474956 26.62676285 266.18345516 24.67615859 266.18243408 22.72557068 C266.17245895 21.5646994 266.16248383 20.40382813 266.15220642 19.20777893 C266.14755591 18.19900192 266.14290541 17.19022491 266.13811398 16.15087891 C265.86981069 13.43112509 265.35921853 11.7964195 263.87805176 9.5146637 C261.51946152 8.33536858 260.11639275 8.38730544 257.48611546 8.38323593 C256.09304262 8.37747421 256.09304262 8.37747421 254.6718269 8.3715961 C253.64470669 8.37246258 252.61758649 8.37332906 251.55934143 8.3742218 C250.47352435 8.37125068 249.38770727 8.36827956 248.26898664 8.3652184 C244.60619665 8.3565003 240.94343922 8.35502054 237.28063965 8.35353088 C234.66455515 8.34890498 232.04847133 8.34388063 229.43238831 8.33848572 C222.30856727 8.32489207 215.18475185 8.31887627 208.06092 8.31447506 C203.61551179 8.31171476 199.17010576 8.30747784 194.72469902 8.30297089 C182.42411593 8.29077761 170.1235346 8.28047793 157.82294559 8.27709579 C156.6416061 8.27676645 156.6416061 8.27676645 155.43640115 8.27643044 C154.25219077 8.27610303 154.25219077 8.27610303 153.04405695 8.275769 C151.44420691 8.27532552 149.84435687 8.27487896 148.24450684 8.27442932 C147.45092124 8.27420789 146.65733565 8.27398646 145.839702 8.27375832 C132.97344206 8.26980816 120.10723868 8.25234776 107.2410006 8.2290698 C94.04124568 8.20538053 80.84151918 8.19289508 67.64174265 8.19172788 C60.2265394 8.19080982 52.81140987 8.18502481 45.39622688 8.16690826 C38.42529931 8.14993744 31.45451413 8.14823644 24.48357201 8.15704727 C21.91924795 8.15782153 19.35491658 8.15342429 16.79061127 8.14358902 C13.30148592 8.13098712 9.8128666 8.13668213 6.32374573 8.14717102 C5.29885624 8.13911462 4.27396676 8.13105821 3.21802002 8.12275767 C2.28669705 8.12934752 1.35537408 8.13593736 0.3958292 8.1427269 C-0.40999236 8.14212981 -1.21581391 8.14153272 -2.0460543 8.14091754 C-4.65205469 8.61010463 -5.53773441 9.42570883 -7.12194824 11.5146637 Z " fill="#F8F9F8" transform="translate(88.1219482421875,21.485336303710938)"/>
<path d="M0 0 C0.93070627 -0.00720654 1.86141254 -0.01441309 2.82032204 -0.02183801 C4.35663308 -0.01077658 4.35663308 -0.01077658 5.92398071 0.00050831 C7.01065222 -0.0034661 8.09732372 -0.0074405 9.21692467 -0.01153535 C12.87673196 -0.0211989 16.53615661 -0.00931547 20.19595337 0.00241566 C22.81218613 -0.00001096 25.42841796 -0.00372901 28.04464722 -0.00864697 C34.42410745 -0.01814628 40.80345476 -0.01152526 47.18290663 0.00061598 C54.60779679 0.01422166 62.03265989 0.01259939 69.45755935 0.01048265 C82.70306287 0.0072911 95.94851266 0.01896991 109.19400024 0.03854847 C122.05469398 0.05755333 134.91532472 0.06463622 147.77603149 0.05905628 C161.77136278 0.05300204 175.76666634 0.05316904 189.76199532 0.06454211 C191.25359217 0.06574944 192.74518903 0.06695542 194.23678589 0.06816006 C194.97073212 0.0687636 195.70467835 0.06936713 196.46086538 0.06998896 C201.63971544 0.07387257 206.81855519 0.07347278 211.99740601 0.07157421 C218.96423391 0.06923372 225.93097918 0.07776205 232.897789 0.09363461 C235.46049412 0.09789046 238.02320746 0.09871933 240.58591461 0.0959444 C244.072717 0.09274068 247.55927389 0.10175876 251.04605103 0.1140337 C252.58236207 0.10836471 252.58236207 0.10836471 254.1497097 0.1025812 C255.08041597 0.1084134 256.01112225 0.11424559 256.97003174 0.12025452 C257.77531122 0.12112129 258.58059071 0.12198807 259.4102726 0.12288111 C261.48501587 0.37473011 261.48501587 0.37473011 264.48501587 2.37473011 C265.52415809 5.49215676 265.62086509 7.67677032 265.63891602 10.94759083 C265.64751648 12.10708744 265.65611694 13.26658405 265.66497803 14.46121693 C265.67136795 16.37121479 265.67136795 16.37121479 265.67788696 18.31979847 C265.68578985 19.67334166 265.69405892 21.02688275 265.70266724 22.38042164 C265.72885687 26.82511865 265.74418773 31.26982497 265.75845337 35.71457386 C265.76381354 37.2446242 265.76919105 38.77467448 265.77458572 40.30472469 C265.79620632 46.66739905 265.81494471 53.03007089 265.82620811 59.39277267 C265.84246099 68.51384787 265.87568002 77.63449804 265.93260896 86.755413 C265.97127301 93.16822189 265.99083633 99.58091691 265.99612868 105.99383932 C265.99978589 109.82490887 266.01184605 113.65552479 266.04423141 117.48646832 C266.07425203 121.08911608 266.08064612 124.69103426 266.06884766 128.29378033 C266.0685209 130.24682779 266.09302449 132.19982983 266.1182251 134.15271473 C266.10574738 135.89618938 266.10574738 135.89618938 266.09301758 137.67488575 C266.0979828 139.18999949 266.0979828 139.18999949 266.10304832 140.73572159 C265.48501587 143.37473011 265.48501587 143.37473011 263.60931683 145.69964504 C259.04339862 148.1476491 254.99544148 147.92450892 249.88819885 147.87593555 C248.80869117 147.88146995 247.72918348 147.88700435 246.61696345 147.89270645 C242.99323954 147.90633912 239.37020123 147.89132886 235.74649048 147.87643909 C233.15128791 147.88022127 230.55608736 147.88572048 227.96089172 147.89281178 C221.64016255 147.90674638 215.31963312 147.89918677 208.99891346 147.88413619 C201.63976524 147.86727957 194.28066683 147.87048587 186.92150528 147.87423027 C173.7924886 147.88010915 160.66356783 147.86593568 147.53457642 147.84128284 C134.79137579 147.81735708 122.04830328 147.81028044 109.30508423 147.82077503 C95.43094227 147.8321805 81.55685957 147.83411928 67.68271834 147.81967694 C66.20377291 147.81815108 64.72482747 147.81663072 63.24588203 147.81511593 C62.15435105 147.81397921 62.15435105 147.81397921 61.04076893 147.81281952 C55.90944815 147.8080742 50.7781538 147.80992985 45.64683342 147.81418133 C38.74313799 147.8196181 31.83962353 147.80888154 24.93596077 147.78722668 C22.39786504 147.78164826 19.85975225 147.78120311 17.32165527 147.78617954 C13.86585381 147.79210703 10.41060115 147.77967546 6.95484924 147.76241016 C5.94270086 147.76842021 4.93055247 147.77443025 3.88773292 147.78062242 C2.96323579 147.77218248 2.03873866 147.76374254 1.08622646 147.75504684 C0.28848637 147.75401771 -0.50925372 147.75298859 -1.33116776 147.75192827 C-4.09485593 147.27457216 -5.48345957 146.28123917 -7.51498413 144.37473011 C-8.01555538 141.8119173 -8.01555538 141.8119173 -8.01618958 138.68124866 C-8.02602371 137.49506443 -8.03585785 136.3088802 -8.04598999 135.08675098 C-8.03632202 133.78379581 -8.02665405 132.48084064 -8.01669312 131.13840199 C-8.02047573 129.75367655 -8.02597529 128.36895489 -8.0330658 126.98424244 C-8.04704559 123.22178153 -8.03583334 119.45977662 -8.01935458 115.69734097 C-8.00552034 111.76293661 -8.0119623 107.82855917 -8.01548767 103.89413929 C-8.01819109 97.28652044 -8.00470298 90.67908311 -7.98153687 84.07150745 C-7.9549262 76.42847257 -7.95317948 68.78574121 -7.96492523 61.14267588 C-7.97569854 53.79514743 -7.96951949 46.44772895 -7.95536995 39.10020924 C-7.94960623 35.97106297 -7.94969583 32.84199708 -7.95443535 29.71284962 C-7.95920218 26.02902646 -7.9491161 22.34553633 -7.9274807 18.66177654 C-7.91924704 16.66210364 -7.92576943 14.66238715 -7.93267822 12.66270924 C-7.91782127 10.88343288 -7.91782127 10.88343288 -7.90266418 9.06821156 C-7.90023429 8.0350909 -7.89780439 7.00197025 -7.89530087 5.93754292 C-7.18004987 1.1177329 -4.59269528 -0.00031377 0 0 Z M-1.51498413 7.37473011 C-1.51498413 51.59473011 -1.51498413 95.81473011 -1.51498413 141.37473011 C84.28501587 141.37473011 170.08501587 141.37473011 258.48501587 141.37473011 C258.48501587 97.15473011 258.48501587 52.93473011 258.48501587 7.37473011 C172.68501587 7.37473011 86.88501587 7.37473011 -1.51498413 7.37473011 Z " fill="#110F0E" transform="translate(88.51498413085938,29.625269889831543)"/>
<path d="M0 0 C1 1 1 1 1.1328125 3.00390625 C1.13023437 3.84824219 1.12765625 4.69257813 1.125 5.5625 C1.12886719 6.80193359 1.12886719 6.80193359 1.1328125 8.06640625 C1 11 1 11 0.50048828 14.52758789 C-0.13574905 19.5179525 -0.13509637 24.4677968 -0.140625 29.4921875 C-0.15894816 31.51693838 -0.17851802 33.54167829 -0.19921875 35.56640625 C-0.22815747 38.72170758 -0.2500002 41.87629559 -0.25048828 45.03173828 C-0.25384327 48.10251419 -0.28849762 51.17169189 -0.328125 54.2421875 C-0.3210553 55.17167206 -0.3139856 56.10115662 -0.30670166 57.05880737 C-0.43264462 63.92068996 -2.16741353 69.26875822 -6 75 C-13.09127007 81.81828637 -21.33054257 82.51246481 -30.73925781 82.49536133 C-37.95031691 82.29767454 -43.53707118 80.99658124 -49 76 C-56.74650627 66.37933899 -57.8777196 58.0591041 -57 46 C-55.36784267 39.30503619 -50.55412447 34.80462796 -45 31 C-36.77375355 27.36146791 -25.43117696 27.93755456 -17 31 C-16.34 31.66 -15.68 32.32 -15 33 C-14.87939209 31.85785034 -14.87939209 31.85785034 -14.75634766 30.69262695 C-14.38665949 27.23174449 -14.00594726 23.77216048 -13.625 20.3125 C-13.43550781 18.51522461 -13.43550781 18.51522461 -13.2421875 16.68164062 C-13.11328125 15.52470703 -12.984375 14.36777344 -12.8515625 13.17578125 C-12.73635254 12.11270752 -12.62114258 11.04963379 -12.50244141 9.9543457 C-11.87959031 6.29199334 -10.79911965 3.26176787 -8.8125 0.125 C-5.83713504 -1.72177825 -3.27925623 -0.72872361 0 0 Z " fill="#F48E4D" transform="translate(282,304)"/>
<path d="M0 0 C3.3125 0.8125 3.3125 0.8125 4.3125 1.8125 C4.41284662 3.51839257 4.44215623 5.22866496 4.4375 6.9375 C4.44136719 8.33355469 4.44136719 8.33355469 4.4453125 9.7578125 C4.3125 12.8125 4.3125 12.8125 3.80371094 15.90844727 C3.23483359 20.42977812 3.24245174 24.78406407 3.3203125 29.33203125 C3.33783256 31.17772884 3.35474047 33.02343233 3.37109375 34.86914062 C3.40196384 37.74569388 3.43745067 40.62194466 3.48388672 43.49829102 C3.52660158 46.29707422 3.54976881 49.09550866 3.5703125 51.89453125 C3.58893341 52.73965775 3.60755432 53.58478424 3.6267395 54.45552063 C3.65723155 61.67204539 2.54987613 69.26129153 -1.875 75.1875 C-8.66474593 81.5245962 -15.87062902 83.02197516 -24.875 83.125 C-26.1134668 83.16850586 -26.1134668 83.16850586 -27.37695312 83.21289062 C-34.76495397 83.28857542 -39.85655868 81.25740387 -45.4375 76.4375 C-52.94020282 67.68434671 -54.50312436 60.12249112 -53.6875 48.8125 C-52.69913996 41.76506322 -49.48559169 37.83597933 -44.00390625 33.41015625 C-37.61222077 29.00172563 -30.18825548 29.17474541 -22.6875 29.8125 C-17.86273069 30.82309357 -13.80004142 32.07080572 -9.6875 34.8125 C-9.71070313 33.58015625 -9.73390625 32.3478125 -9.7578125 31.078125 C-10.08155777 6.82911401 -10.08155777 6.82911401 -5.83984375 1.484375 C-3.6875 -0.1875 -3.6875 -0.1875 0 0 Z " fill="#F8F8F8" transform="translate(135.6875,303.1875)"/>
<path d="M0 0 C13.86 0 27.72 0 42 0 C42 18.48 42 36.96 42 56 C28.14 56 14.28 56 0 56 C0 37.52 0 19.04 0 0 Z " fill="#FEFEFE" transform="translate(113,91)"/>
<path d="M0 0 C7.30005564 4.38003338 13.43354445 8.39321119 16.125 16.875 C17.39852375 25.80010499 16.56625679 33.5325812 11.125 40.875 C6.23821237 46.17320097 0.86899456 50.42229478 -6.4609375 51.30859375 C-15.17699524 51.31757938 -21.36069808 51.17869554 -27.80078125 45.0390625 C-34.04374379 38.29200982 -36.37518867 33.08111295 -36.08984375 23.8359375 C-35.42650616 14.6939395 -31.99540235 8.69390949 -25.3125 2.5 C-18.24128109 -2.21414594 -7.99421172 -3.12736523 0 0 Z " fill="#F7F7F7" transform="translate(49.875,339.125)"/>
<path d="M0 0 C5.62899808 3.73850439 8.76400553 8.30426788 10.7578125 14.75 C12.37869359 23.90612221 9.88671097 31.14119457 4.7578125 38.75 C0.33148672 43.77046347 -5.0952693 47.36949028 -11.828125 48.18359375 C-20.86012093 48.19290509 -26.68657946 47.89812968 -33.42578125 41.76171875 C-37.90605958 37.13768817 -40.68043331 33.21641485 -41.2421875 26.75 C-41.31050781 26.04101562 -41.37882813 25.33203125 -41.44921875 24.6015625 C-41.8221773 16.72799311 -40.06951642 9.54621641 -35.0546875 3.375 C-24.81972028 -7.35870503 -12.32436356 -6.87072533 0 0 Z " fill="#F6F6F6" transform="translate(198.2421875,342.25)"/>
<path d="M0 0 C5.55902569 4.28907586 8.16885789 9.60188756 9.26171875 16.47265625 C9.78273852 25.3299923 6.95073026 32.95474009 1.06640625 39.62890625 C-4.62596871 44.76345382 -10.34189772 47.22058413 -18.0625 47.1484375 C-18.77067871 47.14271729 -19.47885742 47.13699707 -20.20849609 47.13110352 C-26.15075921 46.92782637 -29.92791131 45.75256675 -34.1875 41.6484375 C-34.74824219 41.11734375 -35.30898438 40.58625 -35.88671875 40.0390625 C-41.48219698 34.13197169 -43.32802138 28.33332651 -43.6875 20.2734375 C-43.45029478 11.73404948 -40.59346797 5.60835482 -34.4375 -0.2890625 C-23.30727977 -9.17646999 -11.56878998 -7.14785952 0 0 Z " fill="#F6F6F6" transform="translate(343.1875,343.3515625)"/>
<path d="M0 0 C0.95101089 -0.00938095 1.90202179 -0.0187619 2.8818512 -0.02842712 C4.41167885 -0.01157616 4.41167885 -0.01157616 5.97241211 0.00561523 C7.02504745 0.00416 8.0776828 0.00270477 9.16221619 0.00120544 C11.38551606 0.00286428 13.60882743 0.01442371 15.83203125 0.03515625 C19.24064718 0.06413156 22.64771019 0.05576021 26.05639648 0.04272461 C28.21590927 0.04896132 30.37541714 0.05735173 32.53491211 0.06811523 C34.06777611 0.06371178 34.06777611 0.06371178 35.63160706 0.05921936 C36.57946579 0.07190353 37.52732452 0.08458771 38.50390625 0.09765625 C39.33789444 0.10305923 40.17188263 0.10846222 41.03114319 0.11402893 C43.18725586 0.50170898 43.18725586 0.50170898 44.95570374 1.64146423 C46.74456687 4.34352061 46.56857549 6.4451775 46.57543945 9.66967773 C46.58489594 10.94109619 46.59435242 12.21251465 46.60409546 13.52246094 C46.59872577 14.91138012 46.59257282 16.30029646 46.58569336 17.68920898 C46.58771425 19.11263173 46.59062581 20.53605346 46.59439087 21.95947266 C46.59881357 24.94207623 46.59238521 27.9244102 46.57836914 30.90698242 C46.56127689 34.73055989 46.57111841 38.55350565 46.58908653 42.37705994 C46.59992605 45.31616986 46.59647735 48.25512996 46.58870316 51.19424438 C46.58670159 52.60405553 46.58915892 54.01388027 46.59614182 55.42367554 C46.60375809 57.39369447 46.59009165 59.36376107 46.57543945 61.33374023 C46.57305267 62.45498291 46.57066589 63.57622559 46.56820679 64.73144531 C46.18725586 67.50170898 46.18725586 67.50170898 44.96243286 69.36294556 C42.64656665 70.84855727 41.1419841 70.88222561 38.39624023 70.88989258 C37.42513306 70.89934906 36.45402588 70.90880554 35.45349121 70.91854858 C34.40657104 70.91247589 33.35965088 70.9064032 32.28100586 70.90014648 C31.20475952 70.90301666 30.12851318 70.90588684 29.01965332 70.90884399 C26.74332147 70.91088623 24.46697214 70.90534528 22.19067383 70.89282227 C18.70085513 70.87677153 15.21219467 70.89266626 11.72241211 70.91186523 C9.51277413 70.90988283 7.30313687 70.90603922 5.09350586 70.90014648 C4.04658569 70.90621918 2.99966553 70.91229187 1.92102051 70.91854858 C0.46435974 70.90436386 0.46435974 70.90436386 -1.02172852 70.88989258 C-2.30388245 70.88631241 -2.30388245 70.88631241 -3.61193848 70.88265991 C-5.81274414 70.50170898 -5.81274414 70.50170898 -7.58692932 69.35621643 C-9.35285879 66.68458177 -9.20114374 64.62958355 -9.21679688 61.44140625 C-9.22948105 60.19323624 -9.24216522 58.94506622 -9.25523376 57.65907288 C-9.25318224 56.29541865 -9.25019414 54.93176555 -9.24633789 53.56811523 C-9.2508989 52.1695073 -9.25620423 50.77090162 -9.26222229 49.37229919 C-9.27115797 46.44097795 -9.26872562 43.50992907 -9.25878906 40.57861328 C-9.24730269 36.82449994 -9.26750193 33.07132768 -9.2967062 29.31733799 C-9.31506556 26.42878764 -9.31477632 23.54046288 -9.30906868 20.65186882 C-9.30891541 19.26799131 -9.31496484 17.88409857 -9.32736015 16.50027657 C-9.34225892 14.564039 -9.32896879 12.62764672 -9.31445312 10.69140625 C-9.31428696 9.59014908 -9.31412079 8.48889191 -9.31394958 7.35426331 C-8.36094615 1.93035162 -5.29719095 0.00105443 0 0 Z M-1.81274414 7.50170898 C-1.81274414 25.98170898 -1.81274414 44.46170898 -1.81274414 63.50170898 C12.04725586 63.50170898 25.90725586 63.50170898 40.18725586 63.50170898 C40.18725586 45.02170898 40.18725586 26.54170898 40.18725586 7.50170898 C26.32725586 7.50170898 12.46725586 7.50170898 -1.81274414 7.50170898 Z " fill="#100E0E" transform="translate(114.812744140625,83.498291015625)"/>
<path d="M0 0 C0.99 0.66 1.98 1.32 3 2 C3.4375 5.4375 3.4375 5.4375 3 9 C1.30078125 10.7734375 1.30078125 10.7734375 -1 12 C-3.515625 11.85546875 -3.515625 11.85546875 -6.25 11.1875 C-13.6440422 9.60446703 -19.73526425 9.29352982 -27 12 C-29.78498437 14.04232187 -30.30855276 15.69774336 -31 19 C-31.82511251 25.27085506 -30.83588124 29.24185923 -27.2890625 34.46875 C-25.46196742 36.63911749 -24.31772551 36.96976403 -21.49609375 37.23828125 C-14.50301393 37.40797284 -8.98969116 36.80237294 -3 33 C-2.47664063 32.45601563 -1.95328125 31.91203125 -1.4140625 31.3515625 C-0.94742188 30.90554688 -0.48078125 30.45953125 0 30 C3.34192692 30.24453124 4.60543557 30.60543557 7 33 C7.61966419 36.89503206 7.2078079 38.6488763 5.1875 42.0625 C0.57019069 46.96434938 -5.6150463 49.56455693 -12.21875 50.4140625 C-20.51848175 50.63143643 -28.63409021 49.56259922 -35.875 45.3125 C-43.29205528 37.24099867 -44.55913597 29.73769199 -44.34375 19.06640625 C-43.95414242 12.0550931 -41.02815548 7.1696547 -36.3125 2.125 C-23.84925956 -5.87028632 -13.58186719 -5.21939917 0 0 Z " fill="#F5F5F5" transform="translate(413,334)"/>
<path d="M0 0 C0.84103681 0.00514356 1.68207361 0.01028713 2.54859638 0.01558656 C3.43910851 0.01317214 4.32962065 0.01075772 5.247118 0.00827014 C8.24896985 0.00260744 11.25061131 0.01131562 14.2524538 0.01990479 C16.3972603 0.01883255 18.54206652 0.01689473 20.68687153 0.01415223 C26.52557258 0.00929153 32.36419759 0.01697481 38.20288944 0.02710527 C44.30119718 0.03586589 50.39950239 0.03412871 56.49781513 0.03374451 C66.7405853 0.03468206 76.9833259 0.04337824 87.22608662 0.05701417 C99.0833053 0.07274064 110.94049159 0.07801232 122.79771996 0.07727861 C134.18444044 0.07666907 145.57115032 0.08176775 156.95786762 0.09007043 C161.81270652 0.09360907 166.66754166 0.09543451 171.52238178 0.09596413 C177.23502642 0.09696585 182.94764367 0.10304841 188.66027927 0.11313027 C190.76221391 0.11606069 192.8641517 0.11727955 194.96608829 0.11670274 C197.82483794 0.11621495 200.68350987 0.12183901 203.54224873 0.12911195 C204.38328553 0.12756334 205.22432234 0.12601474 206.09084511 0.12441921 C211.817065 0.14864594 211.817065 0.14864594 214.04542255 1.26282471 C213.71542255 2.91282471 213.38542255 4.56282471 213.04542255 6.26282471 C140.44542255 6.26282471 67.84542255 6.26282471 -6.95457745 6.26282471 C-7.28457745 4.94282471 -7.61457745 3.62282471 -7.95457745 2.26282471 C-5.35033739 -0.34141534 -3.5470649 0.0214035 0 0 Z " fill="#020100" transform="translate(113.95457744598389,53.73717528581619)"/>
<path d="M0 0 C19.14 0 38.28 0 58 0 C61 16 61 16 61 21 C40.21 21 19.42 21 -2 21 C-2 12 -2 12 0 0 Z " fill="#F8F8F8" transform="translate(188,233)"/>
<path d="M0 0 C1.25139771 -0.00630432 2.50279541 -0.01260864 3.79211426 -0.019104 C5.15893698 -0.01552421 6.52575841 -0.01142224 7.89257812 -0.00683594 C9.29357979 -0.00818322 10.69458099 -0.01012428 12.09558105 -0.01263428 C15.03105116 -0.01558257 17.96639952 -0.01129745 20.90185547 -0.00195312 C24.66477907 0.00944135 28.42741737 0.00288029 32.19033051 -0.00909805 C35.08309072 -0.01632466 37.97578328 -0.01402506 40.86854553 -0.00884247 C42.25602756 -0.00750819 43.64351574 -0.00914596 45.0309906 -0.01380157 C46.96987796 -0.01887964 48.90878685 -0.00976768 50.84765625 0 C51.95113403 0.00159119 53.05461182 0.00318237 54.19152832 0.00482178 C56.92382812 0.25878906 56.92382812 0.25878906 59.92382812 2.25878906 C60.6315918 4.41015625 60.6315918 4.41015625 61.09179688 7.05566406 C61.26259766 8.01472656 61.43339844 8.97378906 61.609375 9.96191406 C61.77501953 10.96738281 61.94066406 11.97285156 62.11132812 13.00878906 C62.28857422 13.99878906 62.46582031 14.98878906 62.6484375 16.00878906 C64.86984331 28.83976628 64.86984331 28.83976628 61.92382812 33.25878906 C58.92541504 33.595047 58.92541504 33.595047 55.02734375 33.53930664 C54.31825363 33.53320374 53.60916351 33.52710083 52.87858582 33.52081299 C50.52863168 33.496586 48.17967685 33.45042003 45.83007812 33.40332031 C44.20106409 33.38036601 42.57203494 33.35846289 40.94299316 33.33757019 C37.52638412 33.29047043 34.11015769 33.23294939 30.69384766 33.16772461 C26.30887527 33.08450749 21.92394215 33.02341473 17.53852081 32.96963978 C14.17387534 32.92657456 10.80944302 32.87365722 7.44499207 32.81754112 C5.82785556 32.79141233 4.2106739 32.76794177 2.59346008 32.74714088 C0.3354426 32.71625233 -1.92196276 32.67257233 -4.1796875 32.62524414 C-5.46605103 32.60287186 -6.75241455 32.58049957 -8.07775879 32.55744934 C-11.07617188 32.25878906 -11.07617188 32.25878906 -13.07617188 30.25878906 C-13.325401 23.39905423 -11.86859469 16.38211819 -10.70117188 9.63378906 C-10.58749268 8.93495605 -10.47381348 8.23612305 -10.35668945 7.51611328 C-9.99023438 5.53222656 -9.99023438 5.53222656 -9.07617188 2.25878906 C-5.5679473 -0.08002732 -4.14916866 0.00598299 0 0 Z M-4.07617188 6.25878906 C-6.32277036 17.71079244 -6.32277036 17.71079244 -6.07617188 27.25878906 C14.71382812 27.25878906 35.50382813 27.25878906 56.92382812 27.25878906 C56.23158598 15.68664754 56.23158598 15.68664754 53.92382812 6.25878906 C34.78382813 6.25878906 15.64382812 6.25878906 -4.07617188 6.25878906 Z " fill="#090705" transform="translate(192.076171875,226.7412109375)"/>
<path d="M0 0 C1.228396 -0.00281982 2.45679199 -0.00563965 3.72241211 -0.00854492 C5.09619155 -0.00660033 6.46997085 -0.00455214 7.84375 -0.00241089 C9.28068079 -0.00376489 10.71761123 -0.00554482 12.15454102 -0.00772095 C16.06765589 -0.01229541 19.98074451 -0.01050567 23.89385986 -0.00734186 C27.9800219 -0.00481833 32.06618163 -0.00715578 36.15234375 -0.00872803 C43.01562912 -0.01054974 49.87890375 -0.00814336 56.7421875 -0.00338745 C64.68847006 0.00205517 72.63472697 0.00029252 80.58100891 -0.00521386 C87.39118164 -0.00974493 94.20134663 -0.01039556 101.01152039 -0.00777519 C105.08434469 -0.00621238 109.15715693 -0.00601874 113.22998047 -0.00931168 C117.05810757 -0.01219031 120.88620145 -0.01021485 124.71432495 -0.00441742 C126.12328028 -0.00308978 127.53223838 -0.00348401 128.94119263 -0.00568008 C130.85662743 -0.0083914 132.77206832 -0.00439694 134.6875 0 C135.76193359 0.00037703 136.83636719 0.00075405 137.94335938 0.0011425 C140.34375 0.12698364 140.34375 0.12698364 141.34375 1.12698364 C141.46875 3.62698364 141.46875 3.62698364 141.34375 6.12698364 C139.5817998 7.88893385 137.07690898 7.25312883 134.6875 7.25396729 C133.459104 7.25678711 132.23070801 7.25960693 130.96508789 7.26251221 C129.59130845 7.26056761 128.21752915 7.25851943 126.84375 7.25637817 C125.40681921 7.25773218 123.96988877 7.2595121 122.53295898 7.26168823 C118.61984411 7.2662627 114.70675549 7.26447295 110.79364014 7.26130915 C106.7074781 7.25878561 102.62131837 7.26112306 98.53515625 7.26269531 C91.67187088 7.26451703 84.80859625 7.26211065 77.9453125 7.25735474 C69.99902994 7.25191211 62.05277303 7.25367477 54.10649109 7.25918114 C47.29631836 7.26371222 40.48615337 7.26436285 33.67597961 7.26174247 C29.60315531 7.26017967 25.53034307 7.25998603 21.45751953 7.26327896 C17.62939243 7.2661576 13.80129855 7.26418213 9.97317505 7.2583847 C8.56421972 7.25705706 7.15526162 7.25745129 5.74630737 7.25964737 C3.83087257 7.26235868 1.91543168 7.25836422 0 7.25396729 C-1.07443359 7.25359026 -2.14886719 7.25321323 -3.25585938 7.25282478 C-5.65625 7.12698364 -5.65625 7.12698364 -6.65625 6.12698364 C-6.78125 3.62698364 -6.78125 3.62698364 -6.65625 1.12698364 C-4.8942998 -0.63496656 -2.38940898 0.00083846 0 0 Z " fill="#170F0A" transform="translate(186.65625,146.87301635742188)"/>
<path d="M0 0 C1.81724579 -0.00845947 1.81724579 -0.00845947 3.67120361 -0.01708984 C5.02087462 -0.0132009 6.37054503 -0.00910454 7.72021484 -0.00482178 C9.13596782 -0.00753064 10.55171938 -0.01109098 11.96746826 -0.01544189 C15.81863594 -0.02458065 19.66969678 -0.02101556 23.52086639 -0.01468372 C27.54516393 -0.00963139 31.56945212 -0.01431303 35.59375 -0.01745605 C42.35271858 -0.02109795 49.11164351 -0.01629077 55.87060547 -0.0067749 C63.69251568 0.00411009 71.51432164 0.00058467 79.33622932 -0.01042771 C86.04368548 -0.01949426 92.75111018 -0.02078898 99.45857048 -0.01555037 C103.46826767 -0.01242718 107.4779158 -0.01203088 111.48760986 -0.01862335 C115.25669502 -0.02438702 119.02564534 -0.02041803 122.79471588 -0.00883484 C124.1806745 -0.00618298 125.5666444 -0.00696227 126.95259857 -0.01136017 C128.83916325 -0.01679612 130.72575262 -0.0087821 132.61230469 0 C133.66976898 0.00075405 134.72723328 0.0015081 135.81674194 0.002285 C138.30615234 0.25396729 138.30615234 0.25396729 140.30615234 2.25396729 C139.97615234 3.90396729 139.64615234 5.55396729 139.30615234 7.25396729 C91.12615234 7.25396729 42.94615234 7.25396729 -6.69384766 7.25396729 C-7.02384766 5.60396729 -7.35384766 3.95396729 -7.69384766 2.25396729 C-5.02093332 -0.41894705 -3.73604859 0.00266408 0 0 Z " fill="#180F0A" transform="translate(187.69384765625,83.74603271484375)"/>
<path d="M0 0 C18.87109957 -0.04667061 37.74218748 -0.08196456 56.61333275 -0.10362434 C65.37505393 -0.11394758 74.1367393 -0.12802784 82.8984375 -0.15087891 C90.53297341 -0.17078081 98.16748339 -0.18370881 105.80204451 -0.18817699 C109.84643933 -0.19078981 113.89075997 -0.19695267 117.93513107 -0.21146011 C121.73864024 -0.22499356 125.54204438 -0.22923129 129.34557533 -0.22621536 C130.74444079 -0.22676743 132.14330961 -0.23077008 133.54215431 -0.23841095 C135.4463207 -0.24830538 137.35054294 -0.24479038 139.25473022 -0.24050903 C140.85588464 -0.24327441 140.85588464 -0.24327441 142.4893856 -0.24609566 C145 0 145 0 147 2 C146.46428571 5.53571429 146.46428571 5.53571429 145 7 C143.15925482 7.10084672 141.3146031 7.13076966 139.47109985 7.13371277 C138.27083664 7.13797775 137.07057343 7.14224274 135.8339386 7.14663696 C134.49166867 7.1462874 133.14939876 7.14582584 131.80712891 7.14526367 C130.40299896 7.14825362 128.99886985 7.15165577 127.59474182 7.15544128 C123.77033704 7.16430302 119.9459546 7.16662033 116.12154055 7.16725707 C112.93309458 7.16820453 109.74465387 7.17188101 106.55620992 7.17542917 C99.03519195 7.18358227 91.51418595 7.18601265 83.99316406 7.18530273 C76.22640081 7.18470197 68.45970701 7.19525161 60.69296134 7.2110464 C54.03307346 7.22410925 47.37320833 7.22948715 40.71330774 7.22884732 C36.73206099 7.22859193 32.75087591 7.23146566 28.76964188 7.24202538 C25.02520105 7.2516851 21.28088109 7.25180024 17.53643608 7.24450874 C16.16056963 7.24346019 14.78469574 7.24584179 13.40884209 7.2518692 C11.53353231 7.25955366 9.65818161 7.25376106 7.78286743 7.24723816 C6.20716697 7.24805531 6.20716697 7.24805531 4.59963417 7.24888897 C2 7 2 7 -1 5 C-0.67 3.35 -0.34 1.7 0 0 Z " fill="#130B07" transform="translate(181,126)"/>
<path d="M0 0 C1.07573241 0.00092179 2.15146482 0.00184359 3.25979519 0.00279331 C4.48963634 0.00141865 5.7194775 0.00004398 6.98658657 -0.00137234 C8.36195302 0.00216727 9.73731923 0.00580209 11.1126852 0.00952244 C12.55123804 0.0098043 13.98979102 0.00964659 15.42834377 0.00907993 C19.34552749 0.00879194 23.26268086 0.01468899 27.17985749 0.02165389 C31.26915443 0.02788709 35.358452 0.0284912 39.44775295 0.0296793 C47.19674004 0.03279272 54.94571309 0.04100624 62.69469398 0.05102879 C71.51437815 0.0621896 80.33406298 0.0677003 89.15375245 0.07272422 C107.30144829 0.08318885 125.44913105 0.10078849 143.59681606 0.12304783 C143.97900373 1.7791944 144.31076708 3.44761807 144.59681606 5.12304783 C143.59681606 6.12304783 143.59681606 6.12304783 141.19363213 6.24609566 C139.58003351 6.24471297 139.58003351 6.24471297 137.93383694 6.24330235 C136.70399578 6.24467701 135.47415462 6.24605167 134.20704556 6.24746799 C132.8316791 6.24392839 131.4563129 6.24029357 130.08094692 6.23657322 C128.64239409 6.23629135 127.20384111 6.23644907 125.76528835 6.23701572 C121.84810463 6.23730372 117.93095127 6.23140666 114.01377463 6.22444177 C109.92447769 6.21820857 105.83518013 6.21760446 101.74587917 6.21641636 C93.99689209 6.21330294 86.24791904 6.20508942 78.49893814 6.19506687 C69.67925397 6.18390605 60.85956915 6.17839536 52.03987968 6.17337143 C33.89218384 6.16290681 15.74450108 6.14530717 -2.40318394 6.12304783 C-2.78537161 4.46690126 -3.11713495 2.79847758 -3.40318394 1.12304783 C-2.40318394 0.12304783 -2.40318394 0.12304783 0 0 Z " fill="#030101" transform="translate(183.40318393707275,104.87695217132568)"/>
<path d="M0 0 C4.9995304 2.33060815 8.20200646 5.27901291 10.703125 10.28125 C11.24956538 15.26191973 11.24517175 19.1770807 9.015625 23.71875 C4.69824717 28.50287138 0.69534292 29.99353674 -5.546875 30.59375 C-11.5683841 30.09195758 -16.30164978 27.8972023 -20.296875 23.28125 C-22.89281682 19.14201632 -23.17096694 14.97396653 -22.99609375 10.16796875 C-21.79948383 5.22777471 -18.47537116 2.87393135 -14.296875 0.28125 C-10.03457978 -1.84989761 -4.46183698 -1.39622109 0 0 Z " fill="#080808" transform="translate(115.296875,344.71875)"/>
<path d="M0 0 C0.68449219 -0.00322266 1.36898437 -0.00644531 2.07421875 -0.00976562 C7.07849324 0.20760151 10.06027796 1.66558306 13.9375 4.75 C17.68378856 9.01301802 18.310702 12.94646402 18.203125 18.46875 C17.76679727 22.21603523 16.52559922 24.03565203 13.9375 26.75 C8.84413711 29.90631175 3.96568435 31.62682681 -2.0625 30.75 C-6.24737993 29.60939933 -9.08974371 28.07990353 -11.6796875 24.5390625 C-14.60537886 19.16703034 -16.23451651 14.80541865 -15.0625 8.75 C-11.9262074 1.72952965 -7.42174045 0.0338583 0 0 Z " fill="#050301" transform="translate(251.0625,344.25)"/>
<path d="M0 0 C4.70868454 2.95661587 6.40899163 5.14729705 7.6875 10.6875 C7.6875 17.12608438 5.01287717 21.17222822 0.6875 25.6875 C-2.89077158 28.04162604 -6.09859429 27.96255515 -10.31640625 27.30078125 C-14.89659388 25.89356118 -17.70235853 22.60271221 -20.3125 18.6875 C-21.04382495 13.82333872 -20.9447663 9.15473843 -18.625 4.75 C-13.60726901 -1.8951032 -7.59850432 -3.01072812 0 0 Z " fill="#070707" transform="translate(46.3125,351.3125)"/>
<path d="M0 0 C2.92768959 1.88958451 4.38143154 3.4764889 5.625 6.75 C6.65039779 13.20046752 5.39647599 17.51183891 1.625 22.75 C-1.21954904 25.79773111 -4.22229797 26.44818739 -8.35546875 26.80859375 C-13.05877314 26.67213424 -15.83227874 24.22193153 -19.25 21.25 C-22.05087964 17.60340021 -22.07434703 13.91752116 -21.8671875 9.4453125 C-20.96194573 4.48803616 -18.43828387 1.38639756 -14.5625 -1.6875 C-8.94329134 -3.13243937 -4.9575662 -2.92947094 0 0 Z " fill="#060606" transform="translate(190.375,352.25)"/>
<path d="M0 0 C3.61350664 1.98591037 7.12366903 4.24733805 9 8 C9.7658502 14.86754198 9.10365011 19.41447624 5 25 C1.12768554 28.53014874 -2.06113179 28.70139003 -7.16015625 28.5234375 C-11.25682892 27.7683424 -13.67323804 26.27259265 -16.58984375 23.33203125 C-19.34400227 18.77737021 -18.9542991 14.08959518 -18 9 C-14.35732839 1.30991549 -8.29171002 -1.74634689 0 0 Z " fill="#070707" transform="translate(330,350)"/>
<path d="M0 0 C1.20085236 0.00539291 1.20085236 0.00539291 2.42596436 0.01089478 C3.26491745 0.01074875 4.10387054 0.01060272 4.96824646 0.01045227 C7.75487816 0.01115167 10.54144388 0.01894531 13.32806396 0.02676392 C15.25477563 0.028628 17.18148777 0.03005195 19.10820007 0.03105164 C24.18978169 0.03487758 29.27133491 0.04470851 34.35290527 0.05575562 C39.53407405 0.0659681 44.7152474 0.07054891 49.89642334 0.07559204 C60.07026397 0.08633071 70.24408348 0.10340804 80.41790771 0.12442017 C80.80009539 1.78056674 81.13185873 3.44899041 81.41790771 5.12442017 C79.62933709 6.91299079 77.21667637 6.24432596 74.83581543 6.24884033 C73.63496307 6.24344742 73.63496307 6.24344742 72.40985107 6.23794556 C71.57089798 6.23809158 70.73194489 6.23823761 69.86756897 6.23838806 C67.08093727 6.23768866 64.29437155 6.22989502 61.50775146 6.22207642 C59.5810398 6.22021233 57.65432766 6.21878838 55.72761536 6.2177887 C50.64603374 6.21396276 45.56448052 6.20413183 40.48291016 6.19308472 C35.30174137 6.18287223 30.12056803 6.17829143 24.93939209 6.17324829 C14.76555146 6.16250962 4.59173195 6.14543229 -5.58209229 6.12442017 C-5.96427996 4.46827359 -6.2960433 2.79984992 -6.58209229 1.12442017 C-4.79352166 -0.66415046 -2.38086094 0.00451437 0 0 Z " fill="#0A0603" transform="translate(75.58209228515625,247.87557983398438)"/>
<path d="M0 0 C28.38 0 56.76 0 86 0 C86.495 1.98 86.495 1.98 87 4 C84.47020983 6.52979017 82.89302336 6.23946803 79.44262695 6.25994873 C78.27993286 6.25151947 78.27993286 6.25151947 77.09375 6.24291992 C76.27737061 6.24481827 75.46099121 6.24671661 74.61987305 6.24867249 C71.91315194 6.25238632 69.20669738 6.24166743 66.5 6.23046875 C64.62434928 6.22927717 62.74869796 6.22882374 60.87304688 6.2290802 C56.93876418 6.22751428 53.00457234 6.21921639 49.0703125 6.20581055 C44.01930289 6.18882057 38.96839323 6.18499615 33.9173584 6.18575573 C30.04328451 6.1854842 26.16923261 6.18000574 22.29516602 6.17275429 C20.43237474 6.16956505 18.56958097 6.16759962 16.70678711 6.16686058 C14.10656463 6.16469972 11.50644953 6.15596098 8.90625 6.14526367 C7.74355591 6.14594345 7.74355591 6.14594345 6.55737305 6.14663696 C1.22895443 6.11447721 1.22895443 6.11447721 -1 5 C-0.67 3.35 -0.34 1.7 0 0 Z " fill="#040200" transform="translate(70,233)"/>
<path d="M0 0 C1.18143333 0.01078583 1.18143333 0.01078583 2.38673401 0.02178955 C3.21607956 0.0214975 4.04542511 0.02120544 4.89990234 0.02090454 C7.64871077 0.02230095 10.39725012 0.03787666 13.14601135 0.05352783 C15.04887239 0.05725686 16.95173535 0.06010435 18.854599 0.06210327 C23.86880268 0.06974842 28.88289095 0.08940444 33.89704895 0.11151123 C39.01127053 0.13195071 44.12551072 0.14110092 49.23976135 0.15118408 C59.27887463 0.17264952 69.31790215 0.20679606 79.35694885 0.24884033 C79.85194885 2.72384033 79.85194885 2.72384033 80.35694885 5.24884033 C77.21697217 6.81882867 73.86518524 6.37828578 70.41896057 6.36236572 C69.59936859 6.36251175 68.77977661 6.36265778 67.93534851 6.36280823 C65.21908445 6.36211007 62.50288847 6.35432221 59.78663635 6.34649658 C57.90619443 6.34463206 56.02575203 6.34320832 54.14530945 6.34220886 C49.19032963 6.3383864 44.23537902 6.32855841 39.28041077 6.31750488 C34.2265004 6.30728495 29.17258532 6.30270999 24.1186676 6.29766846 C14.19808184 6.28693592 4.27751777 6.26986273 -5.64305115 6.24884033 C-6.30305115 4.92884033 -6.96305115 3.60884033 -7.64305115 2.24884033 C-5.09559302 -0.2986178 -3.47302912 0.01329963 0 0 Z " fill="#030100" transform="translate(284.64305114746094,232.75115966796875)"/>
<path d="M0 0 C28.05 0 56.1 0 85 0 C85.495 1.98 85.495 1.98 86 4 C83.48584484 6.51415516 81.94747842 6.24329321 78.51719666 6.27105713 C77.75298904 6.26700867 76.98878143 6.26296021 76.20141602 6.25878906 C75.39639648 6.2622937 74.59137695 6.26579834 73.76196289 6.26940918 C71.09252375 6.27823414 68.42334823 6.27237415 65.75390625 6.265625 C63.90307057 6.26697156 62.05223523 6.26891202 60.20140076 6.27142334 C56.3183964 6.27437575 52.43548393 6.27007372 48.55249023 6.26074219 C43.57103173 6.24935553 38.58978891 6.2559014 33.60833836 6.26788712 C29.78482942 6.27510935 25.96137172 6.27281597 22.13786125 6.26763153 C20.30101432 6.26629563 18.46416277 6.26794067 16.62732124 6.27259064 C14.06074811 6.27766095 11.4945255 6.26993821 8.92797852 6.25878906 C8.16579514 6.26283752 7.40361176 6.26688599 6.61833191 6.27105713 C2.86599086 6.24080895 1.20362982 6.13575321 -2 4 C-1.34 2.68 -0.68 1.36 0 0 Z " fill="#080503" transform="translate(279,248)"/>
<path d="M0 0 C0.33 0 0.66 0 1 0 C1 3.63 1 7.26 1 11 C49.84 11 98.68 11 149 11 C148.34 7.7 147.68 4.4 147 1 C149.5625 3.1875 149.5625 3.1875 152 6 C151.80952381 10.19047619 151.80952381 10.19047619 150 12 C148.05236612 12.09863565 146.10109369 12.12555678 144.15096378 12.12584114 C142.87179996 12.12844889 141.59263613 12.13105664 140.27470976 12.13374341 C138.83662786 12.13158087 137.3985461 12.1293242 135.96046448 12.12698364 C134.44722469 12.12813448 132.93398518 12.12972174 131.42074627 12.13171089 C127.24248174 12.13590945 123.06423988 12.13381115 118.88597524 12.13072467 C114.3876151 12.1284729 109.88925901 12.13194908 105.39089966 12.13470459 C96.57043343 12.13916379 87.74997568 12.13818512 78.92950911 12.13529195 C71.76373979 12.13303836 64.59797286 12.1327252 57.43220329 12.13381577 C56.41435865 12.133969 55.39651401 12.13412223 54.3478256 12.13428011 C52.28041959 12.13459982 50.21301359 12.13492403 48.14560758 12.1352527 C28.73456479 12.13810797 9.32352672 12.13481981 -10.0875153 12.12945233 C-26.75992467 12.12498492 -43.43232708 12.12575962 -60.10473633 12.13037109 C-79.44229165 12.13571719 -98.77984284 12.13783256 -118.1173988 12.13475883 C-120.17772837 12.13444026 -122.23805795 12.13412589 -124.29838753 12.13381577 C-125.31223958 12.13366149 -126.32609164 12.13350721 -127.37066649 12.13334826 C-134.53117915 12.13248316 -141.6916892 12.13394585 -148.85220146 12.13629532 C-157.5737456 12.13909394 -166.29528072 12.13835377 -175.01682382 12.13301457 C-179.47064463 12.1303783 -183.92445039 12.12937126 -188.3782711 12.13266373 C-192.44989361 12.13562823 -196.52148703 12.13403127 -200.59310687 12.12868617 C-202.07156818 12.12756264 -203.5500319 12.12815177 -205.02849167 12.13056196 C-207.02736701 12.13357232 -209.02624917 12.12990782 -211.02512264 12.12584114 C-212.13868002 12.12567879 -213.2522374 12.12551644 -214.39953893 12.12534916 C-217 12 -217 12 -219 11 C-219.25 8.75 -219.25 8.75 -219 6 C-217 3.6875 -217 3.6875 -215 2 C-215.33 4.64 -215.66 7.28 -216 10 C-109.08 10.495 -109.08 10.495 0 11 C0 7.37 0 3.74 0 0 Z " fill="#C97D4F" transform="translate(251,260)"/>
<path d="M0 0 C0.99 0.33 1.98 0.66 3 1 C3.33 2.65 3.66 4.3 4 6 C0.52110966 8.31926023 -0.79890843 8.24755552 -4.90348816 8.24050903 C-6.13607864 8.24325836 -7.36866913 8.24600769 -8.63861084 8.24884033 C-10.00671484 8.24176207 -11.37481785 8.23449245 -12.74291992 8.22705078 C-14.1817677 8.22648671 -15.62061606 8.22680314 -17.0594635 8.22793579 C-20.96830237 8.22851047 -24.87701891 8.21673753 -28.78582931 8.20278788 C-32.86977124 8.19029974 -36.95371587 8.18911153 -41.03767395 8.18673706 C-48.7724484 8.18051665 -56.50716642 8.16409825 -64.241916 8.14403808 C-73.04713055 8.12169653 -81.85234777 8.11069004 -90.65758359 8.10064721 C-108.7717544 8.0797325 -126.88587267 8.04454563 -145 8 C-145 7.67 -145 7.34 -145 7 C-97.15 6.67 -49.3 6.34 0 6 C1.39770584 2.25308553 1.39770584 2.25308553 0 0 Z " fill="#F0935B" transform="translate(326,126)"/>
<path d="M0 0 C1.44104095 0.00045319 1.44104095 0.00045319 2.91119385 0.00091553 C4.45513824 0.03188324 4.45513824 0.03188324 6.03027344 0.06347656 C7.61989899 0.07196625 7.61989899 0.07196625 9.24163818 0.08062744 C12.62476872 0.10300916 16.00683828 0.15321058 19.38964844 0.20410156 C21.68390397 0.22416416 23.97817611 0.24241535 26.27246094 0.25878906 C31.89521846 0.30287976 37.51735765 0.36981021 43.13964844 0.45410156 C43.13964844 0.78410156 43.13964844 1.11410156 43.13964844 1.45410156 C42.55749069 1.4599678 41.97533295 1.46583405 41.37553406 1.47187805 C35.32465883 1.5357369 29.2743192 1.62013661 23.22387695 1.71655273 C20.96483413 1.74983842 18.70570741 1.7778589 16.4465332 1.80053711 C13.20194695 1.83401583 9.95813211 1.88632874 6.71386719 1.94238281 C5.19499153 1.9519677 5.19499153 1.9519677 3.64543152 1.96174622 C2.70468277 1.98154037 1.76393402 2.00133453 0.79467773 2.02172852 C-0.03361038 2.03283157 -0.8618985 2.04393463 -1.71528625 2.05537415 C-3.90077823 2.31963899 -3.90077823 2.31963899 -5.62426758 3.60412598 C-7.39945906 6.26095266 -7.26046288 8.30507706 -7.29272461 11.48608398 C-7.31251877 12.72714401 -7.33231293 13.96820404 -7.35270691 15.24687195 C-7.35947666 16.6011032 -7.36592352 17.95533609 -7.37207031 19.30957031 C-7.38891561 20.69535418 -7.40706565 22.08112275 -7.4264679 23.46687317 C-7.47399095 27.11151348 -7.503785 30.75609179 -7.52990723 34.40093994 C-7.5597014 38.12125902 -7.60623556 41.8413644 -7.65136719 45.56152344 C-7.73742634 52.85894351 -7.80475959 60.15637906 -7.86035156 67.45410156 C-8.19035156 67.45410156 -8.52035156 67.45410156 -8.86035156 67.45410156 C-8.95305931 59.30906334 -9.0241198 51.16424579 -9.06760025 43.01881027 C-9.08846951 39.23647161 -9.11677404 35.45449409 -9.16210938 31.67236328 C-9.2055923 28.02189844 -9.22949365 24.37178081 -9.23986053 20.72107697 C-9.24724766 19.32878402 -9.26167331 17.93650994 -9.28327179 16.54436493 C-9.31233197 14.59356745 -9.31398568 12.64242011 -9.31445312 10.69140625 C-9.32333557 9.58110046 -9.33221802 8.47079468 -9.34136963 7.32684326 C-8.4233454 1.84420825 -5.33487554 -0.05615658 0 0 Z " fill="#543522" transform="translate(114.8603515625,83.5458984375)"/>
<path d="M0 0 C0.5625 1.9375 0.5625 1.9375 1 4 C-0.78857062 5.78857062 -3.20123134 5.11990579 -5.58209229 5.12442017 C-6.78294464 5.11902725 -6.78294464 5.11902725 -8.00805664 5.11352539 C-8.84700974 5.11367142 -9.68596283 5.11381744 -10.55033875 5.1139679 C-13.33697044 5.1132685 -16.12353616 5.10547485 -18.91015625 5.09765625 C-20.83686791 5.09579217 -22.76358005 5.09436822 -24.69029236 5.09336853 C-29.77187397 5.08954259 -34.8534272 5.07971166 -39.93499756 5.06866455 C-45.11616634 5.05845206 -50.29733969 5.05387126 -55.47851562 5.04882812 C-65.65235625 5.03808946 -75.82617577 5.02101213 -86 5 C-86.33 4.34 -86.66 3.68 -87 3 C-85.93955475 3.00666183 -84.8791095 3.01332367 -83.78652954 3.02018738 C-73.80963911 3.08091155 -63.83278601 3.12593072 -53.85575294 3.15543652 C-48.72602279 3.17111552 -43.5964414 3.19239443 -38.46679688 3.22631836 C-33.51959133 3.25883229 -28.57252918 3.27683616 -23.62522507 3.28463173 C-21.73449825 3.2901896 -19.84377958 3.30104227 -17.95311356 3.31719017 C-15.31182939 3.33885879 -12.6711434 3.3419714 -10.02978516 3.34057617 C-9.24216293 3.351362 -8.45454071 3.36214783 -7.64305115 3.3732605 C-5.24708293 3.39495052 -5.24708293 3.39495052 -2 3 C-1.34 2.01 -0.68 1.02 0 0 Z " fill="#835233" transform="translate(365,250)"/>
<path d="M0 0 C4.54109672 4.26587874 8.24735246 9.03612328 12 14 C11.67 14.66 11.34 15.32 11 16 C10.34 16 9.68 16 9 16 C8.71125 15.360625 8.4225 14.72125 8.125 14.0625 C7.17176549 11.84793921 7.17176549 11.84793921 5 11 C5 10.01 5 9.02 5 8 C4.34 8 3.68 8 3 8 C3 7.34 3 6.68 3 6 C2.34 6 1.68 6 1 6 C0.67 4.02 0.34 2.04 0 0 Z " fill="#D1804E" transform="translate(380,237)"/>
<path d="M0 0 C0.33 0.66 0.66 1.32 1 2 C0.328125 3.875 0.328125 3.875 -0.75 6 C-1.26820312 7.051875 -1.26820312 7.051875 -1.796875 8.125 C-3 10 -3 10 -6 12 C-6.33 12.99 -6.66 13.98 -7 15 C-7.99 15 -8.98 15 -10 15 C-8.69045041 10.67848635 -6.40768013 7.93048654 -3.4375 4.6484375 C-1.80725313 2.85040066 -1.80725313 2.85040066 0 0 Z " fill="#CF7F4F" transform="translate(60,229)"/>
<path d="M0 0 C6.72 0.72 6.72 0.72 8 2 C8.07205511 3.68608966 8.08386068 5.37500659 8.0625 7.0625 C8.05347656 7.98160156 8.04445313 8.90070313 8.03515625 9.84765625 C8.02355469 10.55792969 8.01195312 11.26820313 8 12 C7.67 12 7.34 12 7 12 C6.34 9.03 5.68 6.06 5 3 C1.28400809 2.79913557 0.22791555 2.8480563 -3 5 C-1.125 1.125 -1.125 1.125 0 0 Z " fill="#CF8557" transform="translate(275,303)"/>
<path d="M0 0 C0.66 0.99 1.32 1.98 2 3 C1.01 3.495 1.01 3.495 0 4 C0 4.99 0 5.98 0 7 C-3.33333333 10 -3.33333333 10 -6 10 C-6.33 10.99 -6.66 11.98 -7 13 C-7.66 12.67 -8.32 12.34 -9 12 C-6.03 8.04 -3.06 4.08 0 0 Z " fill="#D3804E" transform="translate(47,246)"/>
<path d="M0 0 C0.99 0.33 1.98 0.66 3 1 C2.51917969 1.34675781 2.03835937 1.69351563 1.54296875 2.05078125 C-0.75358112 4.95199235 -0.52026199 7.54171147 -0.6875 11.1875 C-0.75324219 12.45980469 -0.81898437 13.73210937 -0.88671875 15.04296875 C-0.92410156 16.01878906 -0.96148437 16.99460937 -1 18 C-1.33 18 -1.66 18 -2 18 C-2.05397335 15.5622037 -2.09365616 13.12560315 -2.125 10.6875 C-2.14175781 9.99720703 -2.15851563 9.30691406 -2.17578125 8.59570312 C-2.21217794 4.82864604 -2.14378864 3.21568296 0 0 Z " fill="#362217" transform="translate(108,85)"/>
<path d="M0 0 C0.33 0 0.66 0 1 0 C2.01603857 5.79141983 1.96263236 9.4584498 0 15 C-0.33 15 -0.66 15 -1 15 C-1.09038099 9.84828377 -0.84681133 5.08086796 0 0 Z " fill="#CA7E4D" transform="translate(270,311)"/>
<path d="M0 0 C0 3.39593478 -0.52165948 4.06619881 -2.5 6.6875 C-2.9640625 7.31011719 -3.428125 7.93273437 -3.90625 8.57421875 C-4.2671875 9.04472656 -4.628125 9.51523438 -5 10 C-5.66 9.67 -6.32 9.34 -7 9 C-4.69 6.03 -2.38 3.06 0 0 Z " fill="#D28253" transform="translate(68,219)"/>
<path d="M0 0 C0.66 0.33 1.32 0.66 2 1 C-0.31 3.31 -2.62 5.62 -5 8 C-5 5 -5 5 -2.5 2.3125 C-1.675 1.549375 -0.85 0.78625 0 0 Z " fill="#2D2D2D" transform="translate(176,351)"/>
<path d="M0 0 C4.31392226 0.4793247 6.16569547 1.7457985 9 5 C8.01 5.33 7.02 5.66 6 6 C5.566875 5.38125 5.13375 4.7625 4.6875 4.125 C3.00259517 1.7802755 3.00259517 1.7802755 0 0 Z " fill="#E38C54" transform="translate(155,83)"/>
</svg>
